<?xml version="1.0" standalone="no"?>
<!DOCTYPE svg PUBLIC "-//W3C//DTD SVG 20010904//EN"
 "http://www.w3.org/TR/2001/REC-SVG-20010904/DTD/svg10.dtd">
<svg version="1.0" xmlns="http://www.w3.org/2000/svg"
 width="576.000000pt" height="576.000000pt" viewBox="0 0 576.000000 576.000000"
 preserveAspectRatio="xMidYMid meet">

<g transform="translate(0.000000,576.000000) scale(0.100000,-0.100000)"
fill="#000000" stroke="none">
<path d="M3465 4796 c-64 -29 -134 -107 -160 -177 -31 -84 -28 -226 6 -299 57
-122 142 -180 266 -180 53 0 85 6 118 21 42 20 115 88 115 108 0 6 -11 22 -24
38 l-24 28 -50 -47 c-59 -56 -101 -67 -158 -43 -56 23 -91 61 -114 122 -41
109 -18 257 49 324 67 68 166 61 206 -14 18 -34 24 -37 63 -37 42 0 42 0 42
35 0 56 -24 90 -82 119 -71 36 -180 37 -253 2z"/>
<path d="M1615 4800 c-3 -5 2 -23 12 -40 17 -30 17 -30 -61 -267 -84 -255 -97
-287 -123 -301 -10 -6 -14 -16 -10 -26 5 -13 21 -16 82 -16 84 0 98 11 71 52
-14 21 -14 30 -3 69 l13 44 112 3 111 3 14 -48 c13 -41 13 -52 0 -76 -7 -15
-11 -32 -8 -37 3 -6 49 -10 101 -10 87 0 94 2 94 20 0 10 -7 23 -15 28 -9 4
-58 134 -114 302 l-98 295 -39 7 c-58 10 -132 9 -139 -2z m131 -262 c20 -62
39 -119 42 -125 3 -10 -17 -13 -78 -13 l-82 0 7 28 c10 42 67 222 71 222 1 0
19 -51 40 -112z"/>
<path d="M2134 4795 c-3 -7 7 -30 22 -50 l27 -36 -6 -142 c-8 -218 -41 -331
-100 -339 -20 -3 -22 -9 -25 -80 -3 -69 -1 -77 18 -83 26 -8 60 3 60 19 0 7 9
25 21 40 l20 26 163 0 c178 0 177 0 204 -62 8 -20 19 -28 36 -28 37 0 47 22
44 92 -3 62 -4 63 -35 73 l-33 9 0 256 c1 207 3 259 15 274 31 41 8 46 -217
46 -173 0 -210 -2 -214 -15z m286 -320 l0 -245 -106 0 -106 0 7 33 c23 110 35
203 41 322 l7 135 79 0 78 0 0 -245z"/>
<path d="M2853 4795 c-3 -9 2 -24 11 -34 9 -10 16 -25 16 -35 0 -10 -36 -126
-80 -259 -60 -182 -86 -249 -106 -268 -15 -15 -23 -32 -20 -38 4 -7 39 -11 87
-11 86 0 94 7 64 54 -13 20 -13 28 1 69 l16 47 107 0 108 0 11 -39 c15 -47 15
-78 2 -86 -5 -3 -10 -15 -10 -26 0 -18 8 -19 99 -19 111 0 128 9 88 46 -19 17
-48 93 -121 312 l-97 290 -37 6 c-70 11 -132 7 -139 -9z m136 -268 c22 -65 41
-120 41 -123 0 -2 -36 -4 -80 -4 -53 0 -80 4 -80 11 0 14 72 240 75 237 1 -2
21 -56 44 -121z"/>
<path d="M3857 4804 c-4 -4 -7 -38 -7 -76 0 -61 2 -68 19 -68 11 0 29 14 41
30 20 28 26 30 81 30 l59 0 0 -244 c0 -232 -1 -245 -21 -270 -36 -46 -21 -56
81 -56 102 0 117 10 81 56 -20 25 -21 38 -21 270 l0 244 53 0 c44 0 58 -4 77
-25 13 -14 34 -25 47 -25 23 0 24 2 21 68 l-3 67 -251 3 c-138 1 -253 -1 -257
-4z"/>
<path d="M4443 4799 c-8 -8 -4 -21 13 -46 24 -35 24 -39 24 -278 0 -227 -1
-244 -20 -268 -40 -50 -30 -57 80 -57 114 0 131 11 89 56 -21 22 -24 36 -24
97 l0 72 90 5 c108 6 157 28 200 89 27 39 30 50 30 125 0 73 -3 87 -27 123
-33 50 -81 73 -172 84 -105 12 -270 11 -283 -2z m305 -95 c49 -32 66 -121 34
-184 -22 -45 -53 -60 -124 -60 l-58 0 0 128 c0 71 3 132 8 136 11 12 114 -3
140 -20z"/>
<path d="M855 4790 c-3 -6 3 -22 14 -36 20 -25 21 -39 21 -281 0 -239 -1 -256
-20 -280 -11 -14 -17 -29 -14 -34 8 -13 201 -11 210 2 3 6 -6 23 -20 38 -23
24 -26 35 -26 105 0 68 3 82 24 107 l24 29 68 -118 c106 -185 93 -172 179
-172 87 0 101 12 57 49 -17 14 -67 87 -113 161 -45 74 -88 145 -96 156 -13 20
-8 28 67 118 45 53 93 104 108 113 64 41 51 53 -59 53 -79 0 -89 -2 -89 -18 0
-10 5 -23 12 -30 9 -9 8 -16 -4 -29 -8 -10 -51 -62 -96 -116 l-82 -98 0 108
c0 92 3 112 20 133 36 45 28 50 -79 50 -57 0 -103 -4 -106 -10z"/>
<path d="M647 3852 c-16 -3 -17 -97 -17 -1341 0 -736 3 -1353 6 -1371 6 -26
21 -41 93 -87 47 -30 121 -78 164 -106 l78 -50 -38 -41 c-80 -86 -97 -107 -82
-101 8 3 39 33 68 65 29 33 56 60 62 60 5 0 73 -43 151 -95 l142 -94 1589 -1
1588 0 109 -76 c60 -41 118 -76 127 -76 26 -1 108 30 147 55 19 12 57 36 85
52 28 17 53 36 55 43 7 16 -47 55 -199 145 -66 39 -176 105 -245 147 -215 131
-279 166 -505 276 -206 101 -243 115 -352 130 -35 5 -43 3 -52 -15 -10 -18 -5
-28 40 -78 28 -32 74 -79 102 -106 l52 -47 -110 57 c-311 163 -395 209 -395
214 0 3 25 23 56 44 l57 37 85 -42 c46 -22 86 -39 88 -37 2 2 -32 21 -76 42
-44 22 -80 42 -80 45 0 3 13 13 29 23 15 9 52 37 80 63 29 26 54 44 57 42 2
-3 -5 -31 -17 -63 -18 -47 -19 -59 -8 -66 21 -13 46 23 70 102 26 85 22 99
-28 99 -89 -1 -226 -19 -234 -32 -14 -22 19 -30 92 -24 38 3 69 3 69 1 0 -3
-36 -32 -81 -64 l-80 -59 -42 24 c-23 13 -46 24 -52 23 -5 0 12 -11 39 -26
l50 -25 -23 -17 c-12 -10 -42 -28 -65 -40 l-42 -24 -320 161 c-175 89 -409
209 -519 268 -110 59 -258 137 -330 174 -71 36 -161 84 -200 106 -38 23 -122
69 -185 104 -140 77 -516 295 -822 478 l-228 135 0 69 0 68 23 -13 c21 -14
322 -191 617 -364 80 -47 170 -100 200 -118 30 -18 120 -67 200 -110 80 -43
204 -110 275 -150 286 -158 1216 -635 1239 -635 9 0 29 15 45 32 47 54 163
202 168 215 3 7 9 10 14 7 5 -3 9 0 9 5 0 6 37 55 81 108 45 54 89 107 98 118
69 86 313 375 317 375 2 0 36 -16 75 -36 l71 -35 -44 -47 c-88 -93 -128 -194
-128 -319 0 -40 -2 -73 -5 -73 -2 0 -51 23 -107 51 -120 59 -168 80 -168 73 0
-2 64 -36 142 -75 120 -59 144 -75 155 -101 7 -17 10 -36 5 -42 -5 -6 -36 -47
-71 -91 l-62 -80 61 65 c34 36 65 74 69 84 7 17 13 12 49 -36 41 -56 129 -138
147 -138 6 1 2 7 -7 14 -10 7 -15 16 -11 19 3 4 -3 7 -15 7 -12 0 -21 6 -19
13 1 6 -3 11 -10 10 -6 -1 -17 4 -23 12 -20 24 12 19 46 -7 16 -12 9 -1 -16
25 -25 25 -49 43 -54 39 -5 -3 -6 0 -2 7 4 6 -2 22 -12 36 -14 17 -22 21 -25
13 -2 -7 -7 -10 -11 -7 -10 9 14 49 68 112 27 32 46 60 44 63 -3 3 -27 -20
-53 -50 -51 -58 -64 -62 -66 -18 -1 25 -2 25 -7 5 -5 -15 -11 -20 -20 -15 -15
10 -11 137 5 153 7 7 8 -3 3 -32 -4 -23 -5 -52 -1 -63 5 -13 10 7 14 56 4 57
14 94 37 142 30 65 118 166 143 166 7 0 44 -15 83 -34 39 -18 81 -36 95 -40
27 -7 -56 37 -115 62 -22 8 -48 24 -58 34 -10 10 -27 18 -37 18 -11 0 -119 50
-241 110 -123 61 -224 109 -226 107 -2 -1 63 -36 144 -76 l147 -74 -26 -29
c-15 -15 -49 -55 -76 -88 -26 -33 -54 -60 -62 -60 -8 0 -78 34 -158 76 l-143
75 87 102 c49 56 110 129 138 162 27 33 78 92 112 131 l63 72 145 -67 c80 -37
148 -70 151 -74 3 -3 -41 -64 -98 -134 -106 -131 -123 -153 -115 -153 3 0 53
60 112 133 60 72 111 135 115 140 7 8 78 -24 388 -174 l184 -89 -48 -60 c-26
-33 -50 -60 -54 -60 -4 0 -18 8 -31 19 -32 24 -125 71 -141 70 -7 0 16 -14 51
-30 44 -21 61 -33 54 -40 -8 -8 -18 -7 -34 0 -21 10 -21 10 -5 -1 35 -24 76
-60 76 -66 -1 -4 -16 -24 -34 -45 l-33 -37 -34 50 c-19 27 -39 51 -46 54 -14
6 -186 -112 -269 -185 -34 -30 -76 -66 -93 -81 -18 -15 -30 -32 -26 -38 3 -6
11 -8 16 -5 5 4 9 -32 9 -88 l0 -94 123 -56 c192 -88 160 -89 284 7 l108 82 3
105 c1 57 6 107 10 111 4 4 25 -3 47 -15 39 -23 40 -24 37 -72 -2 -28 -14 -80
-27 -117 -13 -38 -21 -68 -19 -68 3 0 17 12 31 27 l25 28 -26 -52 c-24 -49
-43 -73 -30 -39 12 31 -15 23 -45 -14 -42 -52 -112 -99 -180 -121 -31 -10 -46
-18 -34 -18 12 -1 34 4 49 9 18 7 31 7 37 1 6 -6 0 -12 -19 -16 -16 -4 -39
-10 -51 -15 -25 -10 -56 -3 -47 11 3 5 -7 10 -23 11 -15 1 -45 2 -65 4 -21 1
-67 16 -103 33 -36 17 -63 26 -60 22 7 -12 82 -48 116 -56 24 -6 26 -9 15 -29
-6 -13 -31 -46 -54 -74 l-43 -51 -147 76 c-81 41 -237 122 -348 179 -111 57
-205 104 -210 104 -11 0 288 -160 521 -278 94 -47 172 -87 174 -88 2 -2 -33
-46 -78 -100 -45 -53 -81 -101 -81 -108 0 -6 6 -4 13 5 195 249 288 352 311
343 9 -3 16 -8 16 -11 0 -3 -7 -3 -15 0 -8 4 -17 2 -20 -3 -4 -6 13 -10 40
-10 37 0 75 -14 200 -77 85 -43 155 -80 155 -83 0 -3 -34 -53 -76 -110 -42
-58 -80 -112 -84 -120 -8 -13 -25 -7 -105 34 -164 83 -113 45 83 -61 290 -157
442 -235 442 -226 0 4 -82 51 -181 103 -100 52 -194 103 -210 112 l-29 18 87
117 c47 65 88 120 91 123 2 3 91 -40 198 -95 l194 -100 0 -58 c0 -55 -3 -62
-53 -125 -115 -146 -196 -261 -188 -266 4 -3 47 47 94 112 47 64 106 141 129
171 l43 54 3 1353 3 1353 -23 6 c-24 6 -4432 12 -4461 7z m1181 -30 c-3 -8
-248 -277 -523 -573 -44 -48 -85 -85 -92 -83 -7 1 -10 -2 -8 -9 2 -7 -54 -75
-125 -151 -71 -76 -127 -143 -124 -148 4 -6 11 -4 18 4 7 7 70 75 140 150
l128 137 46 -30 c25 -16 51 -29 56 -29 6 0 -13 14 -41 30 -29 17 -53 33 -53
36 0 6 241 267 251 272 3 1 143 -67 310 -153 167 -85 410 -208 539 -273 129
-64 237 -118 239 -119 2 -2 -27 -37 -65 -79 -38 -42 -83 -93 -99 -112 l-30
-34 -90 47 c-50 26 -133 70 -185 98 -52 27 -97 51 -99 53 -2 2 27 41 65 86 84
100 98 118 92 118 -3 0 -43 -45 -89 -99 l-84 -99 -65 35 c-75 41 -106 71 -90
87 5 5 10 18 10 27 0 21 -167 253 -185 257 -7 2 -76 -38 -153 -87 -77 -50
-143 -91 -146 -91 -10 0 -61 -52 -59 -60 1 -5 -5 -14 -15 -22 -15 -12 -16 -11
-3 5 7 9 9 17 3 17 -14 0 -33 -26 -24 -34 4 -4 0 -6 -8 -4 -8 2 -15 -4 -15
-12 0 -8 6 -14 13 -13 9 2 12 -21 12 -91 l0 -94 155 -77 154 -78 68 44 c37 24
96 63 131 87 l62 44 0 64 0 65 68 -36 c37 -20 69 -38 71 -40 4 -5 -151 -175
-281 -310 l-87 -90 -28 16 c-44 25 -626 369 -643 379 -49 31 -225 132 -259
150 l-41 20 0 405 0 404 591 1 c337 0 589 -3 587 -8z m1406 -12 c30 -10 70
-25 88 -33 18 -8 49 -20 68 -27 35 -13 622 -270 629 -276 2 -2 -15 -29 -39
-60 -27 -36 -40 -62 -37 -75 3 -13 -4 -26 -21 -40 -15 -11 -63 -55 -107 -97
-44 -43 -101 -97 -127 -120 l-48 -42 -57 25 c-32 14 -115 51 -184 83 l-127 57
65 77 c36 43 62 78 60 78 -4 0 -168 -184 -311 -350 -11 -14 -68 -79 -125 -144
-58 -65 -100 -117 -94 -115 6 2 76 78 155 170 78 91 165 190 193 221 l49 56
106 -53 c58 -28 187 -89 288 -135 100 -46 181 -87 180 -91 -2 -6 -248 -298
-371 -442 l-18 -21 -55 27 c-43 22 -54 32 -54 51 0 14 5 28 10 31 20 13 8 34
-87 148 l-97 117 -55 -31 c-31 -17 -82 -49 -114 -70 -57 -37 -60 -38 -88 -24
-16 9 -29 13 -29 11 0 -3 11 -11 25 -18 l25 -14 -75 -57 c-72 -56 -80 -65 -76
-95 1 -8 -5 -22 -14 -32 -15 -16 -24 -13 -168 61 -83 43 -156 78 -162 79 -5 0
60 -37 145 -81 85 -45 157 -83 159 -85 2 -2 -28 -38 -67 -81 -39 -43 -69 -80
-66 -82 4 -4 77 70 140 144 l34 40 0 -76 0 -75 154 -82 c84 -45 160 -82 167
-82 8 1 64 37 126 80 l112 80 3 74 3 73 113 -54 112 -55 -27 -33 c-84 -99
-327 -390 -328 -393 -1 -1 -100 50 -221 113 -120 64 -261 137 -312 163 -64 32
-91 51 -87 61 4 11 2 11 -9 2 -11 -9 -46 6 -170 70 -86 44 -156 78 -156 76 0
-3 64 -39 143 -80 322 -169 386 -203 472 -249 50 -27 143 -75 207 -106 64 -31
117 -60 117 -63 1 -4 -35 -50 -79 -104 -77 -94 -85 -105 -76 -105 3 0 71 80
151 178 81 97 201 241 267 318 l121 142 86 -40 c47 -21 87 -41 89 -43 2 -2
-41 -57 -96 -122 -286 -337 -400 -478 -396 -485 3 -5 1 -7 -4 -6 -5 2 -19 -8
-30 -22 l-21 -25 -333 169 c-381 194 -489 250 -491 258 -1 3 38 49 87 102 49
54 86 99 84 101 -2 3 -45 -40 -94 -95 -49 -55 -93 -100 -97 -100 -11 0 -285
144 -312 163 -18 14 -14 20 89 131 60 64 178 194 263 289 86 94 167 184 182
198 14 14 75 80 135 147 101 112 110 120 130 108 60 -37 197 -106 191 -96 -4
6 -52 33 -107 61 -89 45 -98 52 -87 67 8 9 48 58 89 107 134 159 200 243 200
255 0 6 5 8 10 5 6 -3 10 -1 10 5 0 7 38 63 85 125 47 62 85 116 85 120 0 5
-38 -43 -86 -106 -47 -63 -89 -118 -93 -122 -5 -5 -59 17 -121 48 -112 56
-160 78 -160 71 0 -2 59 -32 130 -66 72 -35 130 -67 130 -71 0 -4 -23 -34 -51
-67 -28 -33 -52 -63 -52 -67 -3 -10 -96 -105 -103 -105 -4 0 -67 30 -140 68
-128 64 -134 68 -134 98 0 21 14 48 48 90 73 91 108 139 96 132 -6 -4 -37 -41
-70 -82 -32 -42 -61 -76 -64 -76 -3 0 -36 48 -75 106 -38 59 -75 108 -82 111
-13 5 -163 -67 -243 -118 l-45 -28 -165 84 c-90 46 -166 82 -168 80 -2 -1 69
-40 158 -85 180 -91 175 -81 84 -150 -55 -43 -66 -60 -38 -60 11 0 15 -9 14
-32 -1 -18 -2 -56 -1 -84 l1 -51 107 -52 c59 -29 128 -61 154 -72 l46 -20 119
74 119 74 3 57 3 56 129 -67 c71 -38 130 -71 130 -74 0 -7 -140 -168 -236
-272 l-72 -79 -164 85 c-225 117 -444 229 -700 359 -119 60 -219 115 -221 122
-3 8 11 29 31 47 l37 34 -30 -36 c-16 -19 4 1 47 45 42 44 74 85 71 90 -4 5
-1 6 4 3 13 -8 36 17 25 28 -4 5 -2 5 4 2 11 -6 51 40 47 55 -2 3 5 12 15 20
16 12 16 11 2 -7 -11 -15 -7 -14 13 4 15 14 25 26 22 29 -2 3 7 13 20 24 14
11 23 24 20 29 -4 5 275 8 664 8 632 0 673 -1 725 -19z m1646 14 c0 -3 -13
-24 -29 -47 -57 -84 -141 -221 -119 -195 13 15 55 77 93 138 l70 109 105 -2
105 -2 3 -243 c1 -134 -1 -242 -5 -240 -5 1 -144 72 -310 156 -167 84 -303
150 -303 148 0 -2 116 -64 258 -136 141 -73 260 -135 264 -139 10 -9 -143
-220 -159 -221 -7 0 -77 29 -156 65 -79 36 -148 65 -155 65 -6 0 -17 10 -24
23 -7 12 -42 50 -78 84 -60 56 -78 67 -205 117 l-140 55 -33 -35 -34 -36 -116
51 c-65 27 -191 83 -282 124 -171 77 -343 147 -359 147 -6 0 -13 4 -16 10 -4
6 272 10 809 10 449 0 816 -3 816 -6z m-2305 -240 c67 -98 73 -110 58 -121
-41 -31 -194 -103 -205 -97 -7 4 -8 3 -4 -4 4 -7 2 -12 -4 -12 -6 0 -36 39
-66 88 -31 48 -66 97 -77 109 -11 13 -19 25 -16 27 9 9 234 125 236 122 2 -2
37 -52 78 -112z m-247 -134 c40 -61 78 -113 85 -115 6 -3 59 20 117 50 57 30
106 55 107 55 2 0 3 -36 3 -80 0 -68 -3 -82 -17 -87 -10 -4 -58 -31 -108 -61
-49 -30 -99 -58 -111 -63 -18 -6 -51 6 -158 58 l-136 67 0 89 c0 81 -2 89 -17
82 -12 -4 -14 -3 -8 3 6 6 19 12 30 14 11 2 19 10 17 17 -1 7 1 10 6 8 4 -3
19 4 32 15 14 11 19 16 11 12 -9 -5 -12 -3 -7 5 4 6 11 9 16 6 4 -3 19 4 31
15 13 11 26 19 29 20 3 0 38 -50 78 -110z m1906 39 c72 -28 132 -52 134 -53 1
-2 -22 -53 -52 -114 l-55 -110 -145 63 c-80 35 -151 67 -156 70 -6 4 1 21 18
43 16 20 46 63 67 95 21 31 43 57 48 57 6 0 69 -23 141 -51z m-2804 -122 c0
-2 -10 -12 -22 -23 l-23 -19 19 23 c18 21 26 27 26 19z m3645 -24 l35 -17 0
-143 c0 -84 -4 -143 -10 -143 -9 0 -221 89 -229 96 -2 1 29 46 68 99 39 52 74
102 77 110 8 19 15 19 59 -2z m-686 -98 l112 56 -3 -98 -3 -98 -106 -61 -106
-61 -161 71 -162 71 0 101 0 102 159 -70 159 -69 111 56z m-439 -37 l0 -93 53
-24 c28 -12 105 -46 170 -74 l118 -51 37 20 c20 10 72 38 115 62 l77 43 0 90
c0 49 2 89 5 89 2 0 52 -22 110 -50 l107 -49 -108 -128 c-95 -112 -256 -304
-274 -326 -3 -4 -148 58 -321 138 -173 80 -329 152 -346 160 -35 16 -41 29
-19 42 13 8 227 204 250 230 22 24 26 11 26 -79z m-2245 0 c16 -24 48 -69 72
-100 29 -38 41 -62 37 -75 -5 -15 -4 -15 5 -3 8 12 11 12 17 -3 3 -10 5 -19 3
-21 -20 -15 -103 -55 -107 -51 -3 2 3 7 12 11 9 3 13 10 10 15 -3 5 1 6 9 3 8
-3 20 3 28 12 13 16 12 17 -8 12 -27 -7 -29 -1 -6 24 13 15 14 22 4 40 -6 13
-9 15 -7 6 3 -10 -3 -23 -14 -31 -11 -8 -17 -16 -14 -20 3 -3 1 -14 -4 -24 -9
-14 -10 -11 -8 19 2 21 -1 35 -5 32 -5 -3 -7 8 -5 24 3 29 3 29 -33 21 -48
-11 -59 -11 -41 2 13 9 13 10 0 6 -8 -2 -15 -8 -15 -13 0 -5 -4 -15 -9 -22
-11 -18 8 -36 28 -29 9 4 16 12 16 19 0 10 -2 10 -9 -1 -5 -7 -15 -11 -22 -8
-9 3 2 11 25 22 25 10 42 13 48 7 7 -7 4 -10 -7 -9 -10 1 -20 -4 -23 -12 -3
-9 0 -11 8 -6 9 5 11 4 6 -4 -4 -6 -11 -9 -16 -6 -5 3 -12 0 -15 -5 -4 -7 -19
-8 -36 -5 -25 6 -28 4 -23 -12 5 -15 4 -16 -6 -3 -9 12 -11 10 -7 -12 3 -21
-1 -27 -18 -30 -13 -3 -22 0 -22 8 0 7 6 10 14 7 7 -3 13 2 13 11 0 9 -7 16
-15 16 -7 0 -18 7 -23 16 -7 13 -11 14 -17 3 -5 -7 -4 -14 3 -17 7 -2 12 -8
12 -13 0 -6 -8 -5 -20 1 -11 6 -18 15 -15 21 4 5 1 9 -4 9 -20 0 -11 -30 17
-58 31 -33 58 -46 87 -43 15 1 17 0 6 -7 -11 -8 -11 -11 0 -16 8 -3 4 -4 -9
-2 -12 2 -20 0 -16 -5 9 -15 53 -10 80 8 26 16 26 17 5 25 -12 4 -21 13 -21
20 0 10 2 10 9 -1 6 -9 11 -10 15 -2 11 17 29 13 22 -5 -5 -12 -2 -15 11 -10
25 10 11 -2 -59 -49 l-62 -41 -59 90 c-32 49 -61 95 -63 101 -6 14 38 14 48 0
5 -6 8 -5 8 4 0 7 6 11 14 8 8 -3 17 -3 20 1 11 10 48 13 41 2 -3 -5 -2 -10 3
-10 5 0 12 10 16 23 8 32 7 39 -4 32 -5 -3 -10 1 -10 9 0 8 5 18 10 21 6 3 10
1 10 -4 0 -6 6 -11 14 -11 8 0 13 11 13 33 -1 17 3 31 9 30 5 -1 9 11 9 27 1
19 -3 26 -12 23 -7 -3 -10 -9 -7 -14 3 -5 0 -9 -6 -9 -14 0 -44 -29 -38 -36 3
-2 11 2 18 11 15 18 35 20 23 3 -4 -7 -6 -22 -4 -32 2 -13 -2 -17 -11 -14 -21
9 -48 -15 -37 -33 13 -20 11 -31 -3 -22 -24 15 -48 14 -42 -2 4 -8 1 -15 -4
-15 -6 0 -9 8 -7 18 2 10 -6 24 -17 31 -18 11 -19 10 -13 -8 4 -12 2 -21 -4
-21 -6 0 -11 -6 -11 -13 0 -18 -40 -14 -51 5 -7 12 3 23 42 47 28 17 55 29 60
25 5 -3 8 -1 7 5 -3 9 108 91 123 91 4 0 19 -19 34 -42z m3098 -64 c18 -9 34
-18 36 -20 2 -1 -37 -55 -85 -119 -49 -64 -95 -126 -103 -138 -24 -39 48 46
126 148 42 55 81 99 87 98 6 -1 64 -23 128 -50 l118 -48 0 -85 0 -86 -61 -89
c-34 -50 -63 -91 -64 -93 -2 -2 -81 36 -176 85 -96 48 -178 89 -184 91 -31 10
89 -59 208 -119 75 -38 137 -72 137 -75 0 -11 -115 -174 -121 -171 -57 22
-478 234 -476 238 6 17 381 449 389 449 5 0 23 -7 41 -16z m-3304 -189 c44
-69 85 -125 90 -125 6 0 60 32 121 70 61 39 113 70 116 70 3 0 4 -37 2 -82
l-3 -82 -123 -79 -124 -80 -40 20 -41 19 2 77 c2 76 2 77 -23 77 -24 0 -24 -1
-20 -65 3 -36 3 -65 -1 -65 -3 0 -41 18 -85 40 l-80 40 0 99 0 99 62 46 c34
25 63 46 64 46 1 0 38 -56 83 -125z m213 51 c7 4 8 2 4 -4 -11 -18 -26 -14
-25 6 0 10 3 12 6 4 2 -6 10 -9 15 -6z m-652 -40 c0 -2 -8 -10 -17 -17 -16
-13 -17 -12 -4 4 13 16 21 21 21 13z m1318 -317 c2 -5 9 -6 15 -2 7 3 8 2 4
-3 -5 -5 -12 -9 -17 -9 -14 0 -100 -102 -92 -110 4 -5 2 -5 -5 -2 -13 8 -66
-50 -57 -64 3 -5 0 -8 -8 -7 -7 2 -12 -3 -10 -10 1 -8 -2 -11 -7 -8 -12 8
-153 -149 -143 -159 4 -5 2 -5 -5 -1 -6 3 -16 -1 -21 -10 -5 -9 -16 -14 -24
-13 -25 6 -368 194 -365 200 1 3 84 94 185 201 l183 195 182 -95 c100 -52 184
-98 185 -103z m-1667 155 c59 -39 348 -211 749 -444 69 -40 127 -74 129 -76 2
-2 -3 -9 -10 -17 -8 -8 -220 -222 -471 -477 l-458 -463 0 152 c0 99 4 151 11
151 5 0 36 -17 67 -38 63 -43 102 -65 102 -58 0 7 -158 106 -169 106 -8 0 -11
111 -11 350 l0 349 99 -62 c270 -170 320 -203 321 -212 0 -5 -91 -101 -202
-212 -112 -112 -198 -203 -191 -203 6 0 101 93 212 206 l200 206 63 -39 c81
-51 112 -67 104 -55 -3 6 -63 45 -134 88 -70 42 -128 78 -130 79 -2 1 63 69
143 151 80 81 145 151 145 155 0 4 -66 -60 -147 -142 -81 -82 -150 -149 -154
-149 -4 0 -70 39 -146 86 -76 48 -148 93 -160 100 -23 14 -23 16 -23 259 0
135 2 245 4 245 2 0 28 -16 57 -36z m4396 -460 c-5 -5 -238 117 -235 124 2 4
55 84 118 179 l115 172 3 -236 c1 -130 1 -237 -1 -239z m-1922 439 c14 -16 22
-34 20 -41 -3 -7 -1 -10 4 -7 9 5 131 -131 131 -146 0 -14 -70 -50 -81 -43 -7
4 -9 3 -6 -3 6 -9 -140 -100 -147 -92 -68 88 -158 199 -166 204 -7 4 -1 14 15
27 22 17 194 125 203 127 2 1 14 -11 27 -26z m-164 -248 c45 -58 88 -105 95
-105 8 0 37 15 66 33 29 18 75 46 101 61 l49 28 -5 -97 c-3 -63 -10 -102 -19
-110 -24 -23 -189 -135 -198 -135 -6 0 -10 -5 -10 -10 0 -6 -18 -1 -40 10
l-40 20 0 89 c0 72 -3 90 -16 95 -28 11 -29 7 -26 -74 2 -44 1 -80 -2 -80 -3
0 -46 20 -96 45 l-90 46 0 99 c0 55 4 100 8 100 4 0 34 22 67 50 32 27 62 47
66 45 4 -3 44 -52 90 -110z m1874 -112 c74 -37 135 -72 135 -76 0 -5 -35 -59
-78 -121 -93 -133 -117 -170 -105 -163 5 3 52 67 104 141 52 75 99 136 104
136 6 0 21 -7 33 -16 21 -15 22 -20 22 -215 0 -121 -4 -199 -10 -199 -5 0 -83
36 -173 81 l-164 81 -7 54 c-7 61 -33 134 -48 134 -5 0 -6 -5 -2 -11 4 -7 1
-10 -7 -7 -17 6 -19 34 -1 31 19 -4 14 12 -18 52 l-30 38 20 26 c11 14 33 43
48 63 15 21 30 38 34 38 4 0 69 -30 143 -67z m-278 -69 c-2 -2 -13 4 -25 14
-12 11 -19 22 -16 25 3 3 15 -4 26 -15 11 -11 18 -22 15 -24z m-503 15 c-3 -6
-15 -7 -27 -4 -16 5 -18 4 -8 -3 9 -7 10 -11 2 -17 -7 -4 -29 -28 -49 -53 -43
-54 -68 -67 -50 -27 6 14 15 25 20 25 4 0 8 7 8 15 0 9 11 21 25 27 14 6 25
17 25 24 0 7 8 17 17 22 19 11 46 4 37 -9z m541 -39 c-3 -5 1 -10 9 -10 9 0
16 -2 16 -4 0 -2 3 -12 6 -20 5 -12 2 -15 -10 -10 -9 3 -13 11 -9 18 3 6 3 8
-2 4 -10 -10 -37 11 -29 23 3 5 10 9 15 9 6 0 7 -4 4 -10z m-184 -17 c11 -15
11 -16 0 -6 -7 6 -20 9 -29 6 -10 -4 -13 -2 -8 5 10 17 21 15 37 -5z m189 -40
c17 -26 35 -73 42 -105 9 -41 17 -60 31 -64 10 -3 16 -8 14 -10 -2 -3 -29 5
-59 17 -41 17 -64 35 -96 77 l-41 54 32 39 c18 21 35 39 40 39 4 0 21 -21 37
-47z m-248 18 c-10 -6 -7 -14 8 -34 12 -15 17 -27 11 -27 -5 0 -13 4 -16 10
-3 5 -15 15 -27 21 -19 10 -20 9 -16 -15 3 -15 1 -26 -6 -27 -7 0 -6 -3 2 -6
6 -2 12 -9 12 -14 0 -6 -4 -8 -9 -5 -5 4 -11 1 -13 -6 -3 -7 -20 -12 -41 -11
-20 1 -37 -2 -37 -6 0 -14 23 -29 35 -24 8 2 19 -6 26 -19 l12 -23 -23 20
c-16 14 -22 16 -18 5 2 -8 13 -19 24 -25 12 -6 18 -18 16 -29 -3 -12 0 -16 8
-11 6 4 9 16 6 27 -5 23 19 55 29 38 3 -5 2 -10 -2 -10 -5 0 -9 -8 -10 -19 -1
-11 5 -18 15 -18 41 0 43 -2 30 -23 -7 -11 -21 -20 -30 -20 -22 0 -23 -10 -2
-36 13 -16 15 -16 10 -2 -3 10 -2 17 2 17 22 -4 42 2 37 11 -4 6 1 7 11 3 13
-5 15 -3 9 8 -4 8 -5 11 -1 7 5 -4 25 3 45 16 83 52 80 43 -9 -21 -92 -66
-100 -69 -121 -42 -25 32 -24 35 11 48 17 5 30 15 30 21 0 7 -13 4 -34 -8
l-34 -20 -41 65 c-45 70 -49 83 -26 83 14 0 19 11 16 38 -2 15 0 15 33 2 17
-6 26 -6 26 0 0 6 -9 10 -21 10 -12 0 -17 4 -14 11 4 6 13 8 21 5 8 -3 13 -1
11 4 -2 10 55 50 63 43 2 -2 -1 -8 -8 -12z m-2693 -77 c58 -32 152 -84 209
-117 l103 -60 -98 -101 c-110 -114 -115 -118 -123 -107 -3 5 -29 21 -59 36
-30 15 -77 42 -105 59 -28 18 -87 56 -132 84 -44 29 -84 52 -89 52 -13 0 189
-131 293 -190 51 -29 92 -55 92 -58 0 -3 -28 -35 -62 -71 -35 -37 -85 -90
-111 -119 -27 -29 -52 -52 -55 -50 -31 14 -172 102 -172 107 0 4 23 29 50 56
28 27 50 55 50 62 0 32 -27 20 -84 -36 l-63 -62 -47 31 c-26 18 -49 30 -52 27
-3 -2 16 -18 41 -33 50 -32 52 -36 30 -54 -18 -15 -19 -13 -81 78 -20 29 -47
58 -61 63 -25 9 -19 16 193 233 120 123 221 224 223 225 2 1 52 -24 110 -55z
m2852 -30 c41 -53 42 -56 24 -72 -18 -16 -18 -16 -5 2 12 16 12 20 -3 31 -9 7
-17 18 -17 24 0 7 -5 9 -12 5 -6 -4 -8 -3 -4 4 8 13 -22 44 -35 37 -5 -4 -6 1
-3 9 3 9 8 16 10 16 2 0 22 -25 45 -56z m144 36 c-3 -5 -2 -10 3 -10 5 0 9 -7
9 -15 0 -20 -13 -19 -21 1 -9 23 -7 34 5 34 5 0 7 -4 4 -10z m-291 -34 c-3 -9
-10 -16 -15 -16 -6 0 -5 9 1 21 13 24 24 20 14 -5z m-115 -108 c98 -148 81
-137 148 -93 32 21 74 51 94 66 20 16 40 29 43 29 4 0 5 -39 4 -87 l-3 -87
-95 -67 c-52 -38 -100 -72 -105 -77 -6 -5 -65 16 -148 52 l-137 61 0 93 c0 93
0 94 33 122 79 68 92 79 98 80 4 0 34 -42 68 -92z m130 66 c5 3 11 -1 14 -8 7
-18 -17 -40 -35 -33 -8 4 -7 6 4 6 9 1 20 6 24 13 5 7 2 9 -8 6 -8 -4 -20 3
-28 15 -12 20 -12 21 3 9 9 -8 20 -11 26 -8z m298 -4 c1 -11 -2 -20 -8 -20 -5
0 -9 9 -9 20 0 11 4 20 8 20 4 0 8 -9 9 -20z m-787 -11 c0 -5 -4 -9 -10 -9 -5
0 -10 7 -10 16 0 8 5 12 10 9 6 -3 10 -10 10 -16z m551 -35 c10 -13 10 -17 -2
-25 -19 -12 -25 -11 -39 6 -15 18 1 20 18 3 9 -9 12 -8 12 4 0 9 -6 19 -12 21
-8 4 -9 6 -2 6 6 1 17 -6 25 -15z m403 -109 c69 -33 125 -63 125 -66 1 -7
-111 -164 -242 -342 l-86 -116 -145 72 c-140 70 -165 87 -128 87 23 0 129 51
170 83 79 60 145 183 158 293 4 30 10 53 15 52 4 -2 64 -30 133 -63z m-2624
-86 c41 -22 155 -81 252 -132 97 -51 180 -96 183 -99 6 -6 -181 -248 -192
-248 -7 0 -327 172 -337 181 -5 4 34 54 88 113 53 58 96 109 96 113 0 9 -94
-87 -161 -165 l-45 -53 -106 59 c-85 48 -182 108 -207 129 -3 2 44 53 104 113
l108 109 71 -40 c39 -22 105 -58 146 -80z m2805 -1 l25 -11 0 -204 c0 -111 -2
-203 -4 -203 -2 0 -59 27 -126 60 -67 34 -124 59 -126 57 -3 -2 46 -29 108
-60 62 -31 120 -62 130 -69 14 -11 15 -27 11 -108 l-5 -95 -187 94 c-102 51
-188 95 -190 97 -2 2 34 54 81 116 47 62 120 164 163 226 44 61 82 112 87 112
4 0 19 -5 33 -12z m-1085 -68 c0 -5 -7 -7 -15 -4 -8 4 -12 10 -9 15 6 11 24 2
24 -11z m-2770 -125 l57 -81 -69 -74 c-63 -69 -84 -110 -56 -110 7 0 44 32 84
71 l70 70 37 -55 c28 -42 41 -54 57 -51 11 2 18 0 15 -6 -4 -5 -11 -7 -16 -4
-5 4 -9 1 -9 -5 0 -6 8 -10 18 -8 19 4 24 43 5 43 -6 0 -15 4 -20 9 -5 5 -3 6
5 2 19 -11 15 1 -25 60 l-37 55 25 24 24 24 85 -52 c47 -29 99 -61 115 -73 31
-22 289 -174 385 -227 30 -17 94 -54 143 -84 48 -29 105 -62 127 -73 22 -11
40 -25 40 -30 0 -5 -75 -102 -166 -215 l-166 -205 -149 0 c-82 0 -149 2 -149
5 0 6 32 45 224 270 194 228 209 245 204 250 -2 3 -62 -62 -132 -144 -70 -82
-133 -155 -141 -161 -12 -10 -29 -3 -90 31 -41 24 -75 46 -75 49 0 3 45 55
101 115 129 141 183 205 172 205 -5 0 -23 -17 -40 -37 -17 -21 -76 -87 -132
-147 -56 -61 -101 -114 -101 -118 0 -4 -4 -8 -9 -8 -13 0 -331 208 -331 216 0
4 61 71 136 151 75 79 135 146 132 148 -3 3 -58 -52 -123 -122 -65 -71 -128
-138 -140 -151 l-22 -23 -64 43 c-35 24 -133 86 -217 138 l-152 95 151 150
c105 103 154 145 157 135 3 -8 31 -51 62 -95z m270 95 c0 -5 -7 -10 -16 -10
-8 0 -13 -4 -9 -9 3 -5 1 -12 -5 -16 -14 -9 -13 18 2 33 15 15 28 16 28 2z
m3127 -58 c-49 -50 -114 -88 -114 -67 0 13 11 20 20 13 1 -2 18 13 37 32 19
19 41 35 49 35 9 0 17 7 17 15 1 8 2 19 3 25 0 5 6 4 13 -3 9 -9 4 -21 -25
-50z m-2704 -5 c45 -30 115 -71 154 -93 40 -21 73 -42 73 -45 0 -3 -40 -52
-90 -108 -49 -57 -90 -106 -90 -108 0 -12 22 9 95 92 43 50 84 96 91 104 10
11 31 4 126 -47 62 -33 137 -72 166 -87 29 -15 55 -31 58 -36 3 -5 -34 -57
-81 -116 -48 -60 -90 -114 -94 -121 -6 -10 -41 6 -139 63 -78 45 -137 73 -144
69 -7 -4 -10 -3 -5 1 9 10 -35 38 -252 160 -88 50 -159 93 -158 97 2 7 200
226 205 227 2 1 41 -23 85 -52z m1306 -313 c2 -2 -53 -31 -122 -64 -69 -33
-129 -65 -133 -71 -3 -6 -1 -16 5 -22 12 -12 144 43 239 100 55 33 82 37 82
10 0 -8 -8 -21 -17 -30 -10 -9 -52 -63 -93 -121 -60 -85 -79 -105 -95 -101
-11 2 -83 38 -160 80 -77 41 -142 74 -146 73 -4 -2 62 -41 147 -87 85 -47 154
-88 154 -93 0 -4 -48 -70 -106 -147 l-105 -138 -147 84 c-80 47 -158 93 -173
104 -15 10 -29 19 -32 19 -3 0 -42 23 -86 50 -44 28 -85 50 -91 50 -5 0 -10 3
-10 6 0 4 95 125 211 269 l212 263 231 -115 c127 -63 233 -117 235 -119z
m-2166 -50 c117 -75 214 -138 216 -140 4 -4 -30 -42 -189 -211 -58 -62 -108
-113 -113 -113 -4 0 -53 31 -110 68 -56 38 -128 85 -159 105 l-58 37 0 92 0
93 98 102 c53 56 98 102 100 102 2 1 99 -60 215 -135z m2505 -131 l22 -14 -24
-25 c-13 -15 -59 -73 -102 -130 -44 -56 -83 -103 -88 -103 -8 -1 -240 123
-254 134 -2 2 42 64 97 138 l100 135 113 -60 c62 -33 123 -67 136 -75z m146
107 c6 -6 -3 -8 -24 -5 -18 2 -38 9 -44 16 -8 9 -3 10 24 5 19 -3 39 -11 44
-16z m106 -28 c3 -2 -6 -1 -20 3 -19 6 -16 1 13 -19 62 -42 129 -76 141 -69 6
3 8 3 4 -2 -4 -4 0 -14 10 -21 21 -17 36 -18 26 -2 -4 7 -3 8 5 4 6 -4 8 -12
5 -18 -5 -8 -1 -9 10 -5 11 5 15 3 10 -5 -5 -8 -2 -9 9 -5 11 4 17 1 17 -9 0
-9 -4 -14 -8 -12 -39 16 -292 163 -292 170 0 4 7 4 17 1 11 -5 14 -3 8 6 -6
11 -3 11 16 1 13 -7 26 -15 29 -18z m-135 -2 c3 -6 -1 -7 -9 -4 -18 7 -21 14
-7 14 6 0 13 -4 16 -10z m-2203 -218 c90 -60 196 -128 236 -151 39 -24 72 -45
72 -48 0 -5 -108 -137 -139 -170 -21 -22 -28 -23 -198 -23 l-176 0 -141 91
c-78 51 -143 93 -145 95 -8 7 305 324 316 320 6 -3 85 -54 175 -114z m2259 51
c71 -38 128 -71 126 -75 -1 -4 -44 -68 -96 -143 l-94 -135 -126 68 c-69 37
-135 72 -145 78 -18 11 -11 22 85 143 57 72 108 131 113 131 4 0 66 -30 137
-67z m407 -32 c8 -9 10 -10 7 -3 -6 11 -3 12 14 2 12 -6 19 -15 16 -19 -7 -12
24 -23 37 -14 6 3 8 1 5 -4 -7 -10 20 -28 36 -24 4 0 10 -6 13 -14 3 -8 10
-12 15 -9 12 7 81 -35 74 -46 -3 -5 3 -8 12 -8 10 1 35 -9 56 -21 40 -25 47
-34 20 -25 -15 5 -15 3 1 -10 24 -19 40 -21 29 -3 -4 6 6 4 22 -7 15 -10 44
-28 62 -39 24 -14 31 -22 22 -28 -15 -9 -52 8 -44 20 2 5 -6 16 -20 25 -31 20
-41 20 -24 0 7 -9 -9 -3 -37 13 -27 16 -49 35 -49 43 0 7 -6 15 -14 18 -9 3
-11 0 -6 -8 4 -7 -4 -4 -19 5 -14 9 -23 21 -20 26 3 5 2 9 -3 10 -4 0 -17 2
-29 3 -11 1 -34 12 -50 23 -16 11 -60 37 -99 58 -38 20 -77 44 -85 52 -13 13
-11 13 15 7 17 -4 36 -14 43 -23z m-1670 -89 c81 -48 201 -119 267 -157 66
-38 122 -70 124 -72 2 -1 -13 -23 -33 -48 l-37 -45 -400 0 c-219 0 -399 3
-399 8 1 4 54 74 120 156 66 82 116 154 113 159 -3 6 -1 7 5 3 13 -8 55 48 44
59 -4 5 -2 5 4 2 7 -4 17 0 24 8 7 8 14 15 16 15 3 0 71 -40 152 -88z m763 -9
c74 -42 118 -72 115 -80 -3 -7 -44 -62 -92 -123 l-87 -110 -179 0 c-98 0 -178
2 -178 5 0 2 28 40 63 83 34 43 98 126 142 185 44 58 84 106 88 107 5 0 62
-30 128 -67z m742 -17 c45 -35 157 -113 249 -173 l166 -110 -81 -7 c-45 -3
-169 -6 -276 -6 l-193 0 -77 41 c-42 23 -77 43 -79 44 -7 6 194 275 205 275 2
0 41 -29 86 -64z m-455 -141 c72 -38 132 -75 132 -81 0 -6 -7 -17 -15 -24 -8
-7 -15 -18 -15 -24 0 -6 12 2 25 17 l25 28 60 -28 c32 -15 59 -31 59 -35 1 -4
-134 -7 -300 -8 -165 0 -299 4 -297 8 10 25 175 222 184 220 6 -2 70 -34 142
-73z m1189 -110 c0 -8 -4 -12 -9 -9 -5 3 -6 10 -3 15 9 13 12 11 12 -6z"/>
<path d="M721 3806 c9 -9 283 -178 312 -192 59 -30 13 2 -144 99 -132 82 -189
113 -168 93z"/>
<path d="M1214 3649 l-58 -71 -29 36 c-27 33 -57 48 -57 27 0 -5 8 -8 17 -7
12 0 19 -7 21 -21 2 -13 13 -30 25 -38 12 -8 18 -15 13 -15 -4 0 -19 9 -33 20
-45 35 -40 10 5 -29 35 -31 40 -40 29 -49 -8 -7 -18 -8 -22 -4 -5 4 -5 2 -1
-5 4 -7 -2 -17 -14 -23 -13 -7 -20 -7 -20 0 0 5 7 10 16 10 8 0 12 5 9 10 -3
6 1 13 9 16 9 3 13 10 10 15 -3 5 -9 7 -14 4 -17 -11 -100 -127 -100 -141 0
-33 38 -10 85 51 45 58 79 88 72 66 -2 -9 68 -107 84 -117 16 -9 10 2 -22 42
-17 22 -35 47 -41 57 -9 18 -8 18 17 1 14 -9 28 -14 32 -11 3 4 14 2 24 -4 11
-5 19 -7 19 -5 0 3 -12 12 -27 21 -16 8 -39 24 -52 35 l-23 20 36 46 c19 26
33 51 29 57 -3 5 -1 7 4 4 14 -9 45 28 41 49 -6 34 -26 23 -84 -47z m-4 -59
c-6 -11 -16 -18 -21 -14 -6 3 -3 12 8 20 24 18 26 17 13 -6z m-30 -36 c0 -8
-5 -12 -10 -9 -6 4 -8 11 -5 16 9 14 15 11 15 -7z m-126 -166 c-3 -4 -9 -8
-15 -8 -5 0 -9 4 -9 8 0 5 7 9 15 9 8 0 12 -4 9 -9z"/>
<path d="M680 3478 c8 -9 123 -80 255 -158 279 -166 255 -153 255 -146 0 3
-107 69 -237 147 -131 78 -249 148 -263 157 -22 13 -23 13 -10 0z"/>
<path d="M1258 3445 c5 -11 20 -29 33 -40 22 -20 22 -20 11 0 -5 11 -20 29
-33 40 -22 20 -22 20 -11 0z"/>
<path d="M2550 3785 c25 -13 50 -24 55 -24 6 0 -10 11 -35 24 -25 13 -49 24
-55 24 -5 0 10 -11 35 -24z"/>
<path d="M2870 3749 c-46 -55 -55 -69 -47 -69 2 0 27 29 55 65 66 82 60 86 -8
4z"/>
<path d="M1821 3756 c2 -2 15 -9 29 -15 24 -11 24 -11 6 3 -16 13 -49 24 -35
12z"/>
<path d="M2700 3715 c47 -24 90 -44 95 -44 6 0 -28 20 -75 44 -47 24 -89 44
-95 44 -5 0 28 -20 75 -44z"/>
<path d="M2837 3649 c7 -7 15 -10 18 -7 3 3 -2 9 -12 12 -14 6 -15 5 -6 -5z"/>
<path d="M3791 3527 c-8 -12 -21 -32 -29 -44 -8 -13 -12 -23 -9 -23 7 0 59 81
55 85 -2 2 -10 -6 -17 -18z"/>
<path d="M3235 3453 c39 -20 120 -57 180 -83 61 -26 165 -75 232 -109 68 -33
128 -61 135 -61 17 0 -235 123 -377 185 -60 26 -136 60 -167 76 -32 16 -61 29
-65 29 -4 -1 24 -17 62 -37z"/>
<path d="M3684 3363 c-51 -75 -56 -92 -9 -28 39 53 58 85 52 85 -2 0 -22 -26
-43 -57z"/>
<path d="M2034 3317 l-39 -42 40 35 c22 19 42 36 44 38 2 1 2 4 0 7 -3 2 -23
-14 -45 -38z"/>
<path d="M1959 3253 c-13 -16 -12 -17 4 -4 9 7 17 15 17 17 0 8 -8 3 -21 -13z"/>
<path d="M3439 2888 c-159 -186 -153 -178 -146 -178 5 0 257 286 271 308 21
35 -14 -2 -125 -130z"/>
<path d="M2621 2846 c10 -9 249 -126 249 -121 0 5 -236 125 -247 125 -3 0 -4
-2 -2 -4z"/>
<path d="M2765 2038 c-87 -104 -105 -132 -40 -63 72 77 119 135 108 135 -4 0
-35 -33 -68 -72z"/>
<path d="M4180 3805 c0 -3 54 -32 120 -65 66 -33 120 -58 120 -55 0 3 -54 32
-120 65 -66 33 -120 58 -120 55z"/>
<path d="M3914 3723 c-64 -99 -66 -103 -61 -103 5 0 88 124 106 158 24 46 3
20 -45 -55z"/>
<path d="M4608 3502 c-42 -57 -109 -159 -76 -118 70 89 119 158 116 162 -2 2
-20 -18 -40 -44z"/>
<path d="M2233 3319 c6 -47 6 -46 32 -51 17 -2 21 3 23 35 3 32 0 38 -23 47
-38 14 -38 14 -32 -31z"/>
<path d="M2512 3348 c-7 -7 -12 -30 -12 -52 0 -38 1 -39 19 -22 21 19 34 86
16 86 -6 0 -16 -5 -23 -12z"/>
<path d="M4040 3187 c0 -22 6 -37 16 -41 12 -5 15 1 12 31 -4 48 -28 57 -28
10z"/>
<path d="M4382 3184 c-17 -12 -22 -24 -20 -47 3 -35 16 -43 42 -24 19 14 28
78 11 83 -6 2 -21 -3 -33 -12z"/>
<path d="M4152 3138 c2 -25 8 -34 26 -36 17 -3 22 1 22 20 0 27 -17 48 -38 48
-9 0 -12 -10 -10 -32z"/>
<path d="M1570 3171 c0 -5 5 -13 10 -16 6 -3 10 -2 10 4 0 5 -4 13 -10 16 -5
3 -10 2 -10 -4z"/>
<path d="M1660 3133 c0 -13 5 -23 10 -23 13 0 13 11 0 30 -8 12 -10 11 -10 -7z"/>
<path d="M1682 3138 c2 -6 10 -13 16 -14 7 -1 8 0 2 3 -5 2 -8 9 -4 14 3 5 0
9 -6 9 -7 0 -10 -5 -8 -12z"/>
<path d="M1725 3140 c3 -5 8 -10 11 -10 2 0 4 5 4 10 0 6 -5 10 -11 10 -5 0
-7 -4 -4 -10z"/>
<path d="M1515 3130 c3 -5 8 -10 11 -10 2 0 4 5 4 10 0 6 -5 10 -11 10 -5 0
-7 -4 -4 -10z"/>
<path d="M1540 3121 c0 -5 7 -12 16 -15 14 -5 15 -4 4 9 -14 17 -20 19 -20 6z"/>
<path d="M1471 3106 c-7 -8 -8 -17 -3 -20 6 -3 15 1 21 8 7 8 8 17 3 20 -6 3
-15 -1 -21 -8z"/>
<path d="M1570 3040 c0 -5 5 -10 10 -10 6 0 10 5 10 10 0 6 -4 10 -10 10 -5 0
-10 -4 -10 -10z"/>
<path d="M1352 2868 c2 -22 9 -34 21 -36 15 -3 18 2 14 30 -2 22 -9 34 -21 36
-14 3 -17 -2 -14 -30z"/>
<path d="M1716 2877 c-13 -9 -17 -24 -14 -55 3 -42 3 -42 26 -27 16 12 22 26
22 56 0 42 -6 46 -34 26z"/>
<path d="M812 2499 c-79 -72 -140 -134 -138 -137 5 -4 286 255 286 264 0 8 -9
0 -148 -127z"/>
<path d="M3088 2613 c7 -3 16 -2 19 1 4 3 -2 6 -13 5 -11 0 -14 -3 -6 -6z"/>
<path d="M2878 2438 c-8 -22 4 -58 19 -58 10 0 13 9 11 32 -3 32 -23 49 -30
26z"/>
<path d="M3218 2429 c-13 -7 -18 -23 -18 -54 0 -25 4 -45 9 -45 19 0 32 31 29
69 -3 35 -5 38 -20 30z"/>
<path d="M4330 2205 c7 -8 16 -12 21 -9 13 8 1 24 -18 24 -13 0 -13 -3 -3 -15z"/>
<path d="M4492 1968 c-7 -7 -12 -32 -12 -57 l0 -45 20 20 c26 26 39 94 18 94
-8 0 -19 -5 -26 -12z"/>
<path d="M4210 1935 c0 -28 5 -37 30 -50 40 -21 40 -20 40 25 0 29 -5 42 -19
50 -37 19 -51 12 -51 -25z"/>
<path d="M2831 1393 c-65 -82 -158 -194 -206 -251 -48 -56 -86 -105 -83 -107
3 -3 49 48 104 112 54 64 104 121 109 127 17 18 191 240 199 254 23 39 -17 -5
-123 -135z"/>
<path d="M4550 866 c0 -2 7 -7 16 -10 8 -3 12 -2 9 4 -6 10 -25 14 -25 6z"/>
<path d="M4448 2591 c-1 -5 -29 -39 -61 -75 -32 -36 -56 -67 -55 -69 2 -2 -14
-23 -34 -46 -21 -22 -38 -44 -38 -49 1 -4 20 15 44 42 l43 49 54 -5 c54 -5 54
-5 21 9 -18 7 -38 11 -44 7 -11 -7 -1 37 11 46 20 15 82 100 73 100 -6 0 -12
-4 -14 -9z"/>
<path d="M4413 2473 c9 -2 23 -2 30 0 6 3 -1 5 -18 5 -16 0 -22 -2 -12 -5z"/>
<path d="M4480 2420 c20 -13 33 -13 25 0 -3 6 -14 10 -23 10 -15 0 -15 -2 -2
-10z"/>
<path d="M4149 1657 c7 -7 14 -8 21 -1 6 6 2 10 -12 11 -16 2 -18 -1 -9 -10z"/>
<path d="M4215 1640 c-3 -5 1 -10 10 -10 9 0 13 5 10 10 -3 6 -8 10 -10 10 -2
0 -7 -4 -10 -10z"/>
<path d="M4289 1253 c-68 -77 -72 -83 -58 -83 8 1 31 25 52 55 42 61 44 70 6
28z"/>
</g>
</svg>
